<svg width="223" height="157" viewBox="0 0 223 157" fill="none" xmlns="http://www.w3.org/2000/svg">
<g filter="url(#filter0_d_1_232)">
<g clip-path="url(#clip0_1_232)">
<rect width="164.942" height="89.7815" rx="6.23592" transform="matrix(0.993173 -0.11665 0.116685 0.993169 24 38.2405)" fill="#F1F7FF" fill-opacity="0.9" shape-rendering="crispEdges"/>
<g filter="url(#filter1_d_1_232)">
<g clip-path="url(#clip1_1_232)">
<rect width="152.78" height="77.3254" rx="3.74155" transform="matrix(0.993173 -0.11665 0.116685 0.993169 31 43.8218)" fill="white"/>
<path d="M44.9664 56.2504L45.0169 56.6801L42.9068 56.9279L42.8564 56.4983L44.9664 56.2504ZM42.5454 52.9307L43.0136 56.9154L42.4854 56.9774L42.0172 52.9927L42.5454 52.9307ZM44.4709 54.4414L44.5214 54.871L42.6904 55.0861L42.64 54.6564L44.4709 54.4414ZM44.5214 52.6986L44.5722 53.131L42.4895 53.3756L42.4387 52.9432L44.5214 52.6986ZM46.6962 56.1166C46.8166 56.1025 46.925 56.0648 47.0214 56.0035C47.1178 55.9423 47.1938 55.8649 47.2494 55.7714C47.3048 55.6761 47.3305 55.5723 47.3266 55.4599L47.8083 55.4034C47.8197 55.5796 47.7796 55.7499 47.6879 55.9141C47.5978 56.0764 47.4707 56.2143 47.3065 56.328C47.142 56.4398 46.9549 56.508 46.7451 56.5326C46.5225 56.5588 46.3236 56.5424 46.1483 56.4834C45.9749 56.4242 45.8254 56.3327 45.6999 56.2087C45.5762 56.0845 45.4765 55.9371 45.401 55.7666C45.3271 55.594 45.2784 55.4082 45.2551 55.2094L45.2416 55.0944C45.2182 54.8956 45.2226 54.7045 45.2547 54.5213C45.2884 54.3361 45.3511 54.1687 45.4426 54.0193C45.536 53.8696 45.6602 53.7459 45.8152 53.6481C45.972 53.5502 46.1617 53.4881 46.3843 53.462C46.616 53.4347 46.8241 53.4584 47.0086 53.5329C47.1929 53.6056 47.3438 53.7174 47.4614 53.8682C47.5806 54.0169 47.6568 54.193 47.6899 54.3962L47.2083 54.4528C47.1848 54.3316 47.1371 54.2253 47.0653 54.1339C46.9954 54.0422 46.9059 53.9732 46.7969 53.9268C46.6894 53.8784 46.5682 53.8621 46.4332 53.878C46.2781 53.8962 46.1513 53.9425 46.0528 54.017C45.9559 54.0894 45.8825 54.1812 45.8327 54.2925C45.7845 54.4018 45.7541 54.5209 45.7415 54.6501C45.7305 54.7771 45.7327 54.9054 45.7479 55.035L45.7614 55.1499C45.7766 55.2794 45.8044 55.4057 45.8447 55.5286C45.885 55.6514 45.9413 55.7604 46.0135 55.8555C46.0876 55.9504 46.1802 56.0228 46.2915 56.0726C46.4044 56.1204 46.5393 56.1351 46.6962 56.1166ZM48.1973 54.8388L48.1899 54.7759C48.1648 54.5624 48.1726 54.3608 48.2132 54.1711C48.2536 53.9795 48.3242 53.8094 48.4251 53.6606C48.5258 53.5101 48.6548 53.3877 48.812 53.2934C48.969 53.1972 49.1506 53.1371 49.3568 53.1128C49.5648 53.0884 49.7563 53.1048 49.9313 53.1619C50.108 53.217 50.2627 53.3061 50.3956 53.4292C50.53 53.5503 50.6391 53.6993 50.7228 53.8763C50.8063 54.0515 50.8605 54.2458 50.8856 54.4593L50.893 54.5222C50.9181 54.7357 50.9103 54.9373 50.8697 55.127C50.8291 55.3168 50.7576 55.487 50.6551 55.6378C50.5542 55.7865 50.4252 55.9089 50.2682 56.0051C50.1127 56.0992 49.931 56.1584 49.723 56.1829C49.515 56.2073 49.3236 56.1918 49.1488 56.1365C48.9738 56.0794 48.819 55.9903 48.6846 55.8692C48.5517 55.7461 48.4436 55.597 48.3601 55.4218C48.2766 55.2466 48.2224 55.0523 48.1973 54.8388ZM48.6962 54.7164L48.7036 54.7794C48.721 54.9272 48.7547 55.0647 48.8048 55.192C48.8547 55.3175 48.9202 55.4263 49.0013 55.5185C49.0842 55.6105 49.1821 55.6795 49.2947 55.7254C49.4072 55.7696 49.5337 55.7834 49.6742 55.7669C49.8128 55.7506 49.9308 55.708 50.0282 55.6393C50.1272 55.5685 50.2054 55.4788 50.2629 55.3703C50.3205 55.2618 50.359 55.1408 50.3784 55.0072C50.3995 54.8715 50.4013 54.7298 50.384 54.582L50.3766 54.5191C50.3594 54.3731 50.325 54.2375 50.2733 54.1122C50.2232 53.9849 50.1567 53.8753 50.0737 53.7833C49.9924 53.6893 49.8954 53.6193 49.7827 53.5733C49.6718 53.5272 49.5462 53.5123 49.4057 53.5288C49.267 53.5451 49.1482 53.5887 49.0492 53.6595C48.9521 53.7301 48.874 53.8206 48.8148 53.9312C48.7573 54.0397 48.7189 54.1616 48.6996 54.2971C48.6802 54.4307 48.679 54.5705 48.6962 54.7164ZM51.9368 53.4618L52.2156 55.8346L51.7066 55.8944L51.3587 52.9332L51.8403 52.8766L51.9368 53.4618ZM51.9245 54.254L51.6882 54.2735C51.6662 54.0707 51.6707 53.8806 51.7016 53.7031C51.7323 53.5238 51.7904 53.3643 51.8757 53.2248C51.9611 53.0853 52.0745 52.9721 52.2159 52.8852C52.3572 52.7965 52.5263 52.7406 52.7234 52.7174C52.862 52.7011 52.9921 52.7062 53.1136 52.7326C53.2349 52.7572 53.3433 52.8065 53.4389 52.8803C53.5345 52.9542 53.6138 53.054 53.6766 53.1798C53.7395 53.3056 53.7819 53.4615 53.8038 53.6476L54.0356 55.6208L53.5293 55.6803L53.3003 53.7317C53.2821 53.5767 53.2411 53.4557 53.1772 53.3689C53.1152 53.2818 53.0343 53.2229 52.9345 53.192C52.8345 53.1594 52.7206 53.1506 52.5929 53.1656C52.4433 53.1832 52.3214 53.2243 52.2273 53.289C52.1332 53.3537 52.0615 53.4361 52.0122 53.5362C51.9629 53.6363 51.9317 53.7482 51.9184 53.8718C51.9068 53.9934 51.9088 54.1208 51.9245 54.254ZM53.8102 53.7495L53.483 53.8934C53.4658 53.7308 53.4739 53.5717 53.5074 53.4161C53.5427 53.2603 53.6028 53.1182 53.6876 52.9898C53.7743 52.8613 53.8866 52.7547 54.0246 52.67C54.1624 52.5836 54.3253 52.5293 54.5132 52.5072C54.672 52.4886 54.8149 52.493 54.9421 52.5207C55.0711 52.548 55.1827 52.6006 55.2769 52.6783C55.3727 52.754 55.4505 52.8568 55.5101 52.9866C55.5698 53.1165 55.6105 53.2745 55.6324 53.4606L55.861 55.4064L55.352 55.4662L55.1227 53.5149C55.1032 53.3489 55.0616 53.2234 54.998 53.1384C54.936 53.0513 54.8554 52.9951 54.7562 52.9698C54.6587 52.9424 54.5451 52.9363 54.4156 52.9515C54.3043 52.9646 54.208 52.9953 54.1268 53.0437C54.0455 53.0921 53.9797 53.1535 53.9292 53.2278C53.8786 53.3004 53.8428 53.3813 53.8218 53.4707C53.8027 53.5599 53.7988 53.6528 53.8102 53.7495ZM56.8661 52.8829L57.1449 55.2557L56.6358 55.3154L56.2879 52.3543L56.7696 52.2977L56.8661 52.8829ZM56.8538 53.6751L56.6174 53.6945C56.5955 53.4918 56.5999 53.3016 56.6309 53.1241C56.6616 52.9448 56.7196 52.7854 56.805 52.6459C56.8903 52.5064 57.0037 52.3932 57.1452 52.3063C57.2864 52.2176 57.4556 52.1616 57.6526 52.1385C57.7913 52.1222 57.9214 52.1273 58.0429 52.1537C58.1641 52.1783 58.2726 52.2275 58.3682 52.3014C58.4638 52.3752 58.543 52.4751 58.6059 52.6008C58.6688 52.7266 58.7112 52.8826 58.733 53.0687L58.9649 55.0419L58.4585 55.1014L58.2296 53.1528C58.2114 52.9977 58.1704 52.8767 58.1065 52.7899C58.0445 52.7029 57.9636 52.6439 57.8638 52.6131C57.7638 52.5805 57.6499 52.5716 57.5222 52.5866C57.3726 52.6042 57.2507 52.6453 57.1566 52.71C57.0624 52.7747 56.9907 52.8571 56.9414 52.9573C56.8922 53.0574 56.8609 53.1693 56.8477 53.2929C56.8361 53.4145 56.8381 53.5419 56.8538 53.6751ZM58.7394 53.1706L58.4123 53.3144C58.3951 53.1518 58.4032 52.9927 58.4367 52.8371C58.472 52.6813 58.5321 52.5392 58.6169 52.4109C58.7035 52.2823 58.8159 52.1757 58.9539 52.0911C59.0917 52.0046 59.2546 51.9503 59.4425 51.9283C59.6012 51.9096 59.7442 51.9141 59.8714 51.9417C60.0004 51.9691 60.112 52.0216 60.2062 52.0994C60.302 52.175 60.3797 52.2778 60.4394 52.4077C60.499 52.5376 60.5398 52.6956 60.5617 52.8817L60.7903 54.8275L60.2812 54.8873L60.052 52.936C60.0325 52.7699 59.9909 52.6444 59.9273 52.5594C59.8653 52.4724 59.7847 52.4162 59.6855 52.3908C59.588 52.3634 59.4744 52.3573 59.3449 52.3726C59.2336 52.3856 59.1373 52.4164 59.0561 52.4647C58.9748 52.5131 58.9089 52.5745 58.8585 52.6489C58.8078 52.7214 58.772 52.8024 58.7511 52.8918C58.732 52.9809 58.7281 53.0739 58.7394 53.1706ZM62.8058 54.6463C62.5997 54.6705 62.4086 54.6578 62.2326 54.6082C62.0582 54.5565 61.9033 54.4739 61.7679 54.3603C61.6343 54.2465 61.5252 54.1058 61.4408 53.9382C61.3564 53.7705 61.3019 53.5827 61.2775 53.3747L61.264 53.2597C61.2357 53.0189 61.2461 52.8003 61.2952 52.6041C61.344 52.406 61.4219 52.234 61.5287 52.0883C61.6355 51.9426 61.7625 51.8269 61.9096 51.7411C62.0568 51.6554 62.2134 51.6028 62.3794 51.5833C62.591 51.5585 62.7778 51.5735 62.9396 51.6285C63.1033 51.6833 63.2421 51.7705 63.356 51.8903C63.4698 52.0083 63.5608 52.153 63.629 52.3244C63.697 52.494 63.7432 52.6828 63.7677 52.8908L63.7944 53.1179L61.583 53.3776L61.5345 52.9644L63.2395 52.7641L63.235 52.7258C63.2123 52.5953 63.1699 52.4708 63.1079 52.3523C63.0477 52.2336 62.9627 52.14 62.8529 52.0715C62.7432 52.003 62.6016 51.9789 62.4283 51.9993C62.3133 52.0128 62.2104 52.0499 62.1195 52.1105C62.0284 52.1693 61.9537 52.2502 61.8955 52.3532C61.8373 52.4562 61.7971 52.5784 61.7749 52.7197C61.7526 52.8611 61.752 53.0211 61.773 53.1999L61.7865 53.3149C61.803 53.4554 61.8377 53.5854 61.8906 53.705C61.9451 53.8225 62.0153 53.9234 62.101 54.0077C62.1886 54.0917 62.2893 54.1539 62.4031 54.1941C62.5188 54.2342 62.646 54.2461 62.7847 54.2298C62.9635 54.2088 63.1106 54.1545 63.2261 54.067C63.3416 53.9794 63.4387 53.869 63.5174 53.7359L63.8525 53.9434C63.8 54.0476 63.7296 54.1493 63.6414 54.2485C63.5532 54.3476 63.4402 54.433 63.3025 54.5047C63.1666 54.5761 63.0011 54.6233 62.8058 54.6463ZM64.7698 51.8297L65.0631 54.3257L64.5568 54.3851L64.2088 51.4239L64.7015 51.3661L64.7698 51.8297ZM65.6383 51.2394L65.6908 51.7104C65.6478 51.7063 65.607 51.7055 65.5685 51.7082C65.5316 51.7088 65.4894 51.7119 65.4419 51.7175C65.3252 51.7312 65.2242 51.7615 65.1391 51.8085C65.054 51.8555 64.9843 51.9155 64.93 51.9885C64.8757 52.0614 64.8356 52.1457 64.8098 52.2412C64.7857 52.3347 64.7744 52.4359 64.7761 52.5448L64.6435 52.6436C64.6225 52.4648 64.6201 52.2949 64.6363 52.1339C64.6544 51.9728 64.6937 51.8276 64.7544 51.6984C64.8148 51.5673 64.8986 51.4613 65.0056 51.3803C65.1142 51.2973 65.2488 51.2463 65.4093 51.2274C65.4458 51.2232 65.4883 51.2228 65.5368 51.2263C65.5851 51.2281 65.6189 51.2324 65.6383 51.2394ZM67.5579 53.6664C67.6784 53.6522 67.7868 53.6145 67.8831 53.5533C67.9795 53.492 68.0555 53.4146 68.1111 53.3212C68.1665 53.2259 68.1922 53.1221 68.1883 53.0097L68.67 52.9531C68.6814 53.1293 68.6413 53.2996 68.5496 53.4639C68.4596 53.6262 68.3324 53.7641 68.1682 53.8777C68.0038 53.9895 67.8166 54.0577 67.6068 54.0824C67.3842 54.1085 67.1853 54.0921 67.01 54.0332C66.8366 53.974 66.6871 53.8824 66.5616 53.7584C66.4379 53.6342 66.3382 53.4869 66.2627 53.3163C66.1888 53.1437 66.1402 52.958 66.1168 52.7591L66.1033 52.6442C66.0799 52.4453 66.0843 52.2543 66.1164 52.0711C66.1501 51.8859 66.2128 51.7185 66.3044 51.569C66.3978 51.4193 66.5219 51.2956 66.6769 51.1979C66.8338 51.0999 67.0235 51.0379 67.246 51.0117C67.4778 50.9845 67.6859 51.0082 67.8703 51.0827C68.0546 51.1554 68.2055 51.2671 68.3231 51.4179C68.4423 51.5667 68.5185 51.7427 68.5516 51.946L68.07 52.0026C68.0465 51.8814 67.9988 51.7751 67.9271 51.6836C67.8571 51.592 67.7676 51.5229 67.6586 51.4766C67.5512 51.4281 67.4299 51.4118 67.2949 51.4277C67.1398 51.4459 67.013 51.4923 66.9145 51.5667C66.8176 51.6391 66.7442 51.731 66.6944 51.8423C66.6462 51.9515 66.6158 52.0707 66.6032 52.1998C66.5922 52.3269 66.5944 52.4552 66.6096 52.5847L66.6231 52.6997C66.6383 52.8292 66.6661 52.9554 66.7064 53.0783C66.7468 53.2012 66.803 53.3102 66.8752 53.4053C66.9493 53.5002 67.0419 53.5725 67.1532 53.6224C67.2661 53.6701 67.401 53.6848 67.5579 53.6664ZM70.5984 53.731C70.3923 53.7552 70.2012 53.7425 70.0252 53.6929C69.8508 53.6412 69.6959 53.5586 69.5605 53.4451C69.4269 53.3313 69.3178 53.1906 69.2334 53.0229C69.149 52.8552 69.0945 52.6674 69.0701 52.4594L69.0566 52.3445C69.0283 52.1036 69.0387 51.8851 69.0878 51.6888C69.1366 51.4907 69.2145 51.3188 69.3213 51.1731C69.4281 51.0273 69.5551 50.9116 69.7022 50.8259C69.8494 50.7402 70.006 50.6876 70.172 50.6681C70.3836 50.6432 70.5704 50.6583 70.7322 50.7132C70.8959 50.768 71.0347 50.8553 71.1486 50.9751C71.2624 51.093 71.3534 51.2377 71.4216 51.4091C71.4896 51.5787 71.5358 51.7675 71.5603 51.9755L71.587 52.2027L69.3756 52.4624L69.3271 52.0491L71.0321 51.8489L71.0276 51.8106C71.0049 51.6801 70.9625 51.5555 70.9005 51.4371C70.8403 51.3183 70.7553 51.2247 70.6455 51.1563C70.5358 51.0878 70.3942 51.0637 70.2209 51.084C70.1059 51.0975 70.003 51.1346 69.9121 51.1952C69.821 51.254 69.7463 51.3349 69.6881 51.4379C69.6299 51.541 69.5897 51.6631 69.5675 51.8045C69.5452 51.9458 69.5446 52.1059 69.5656 52.2847L69.5791 52.3996C69.5956 52.5401 69.6303 52.6702 69.6832 52.7897C69.7377 52.9072 69.8079 53.0081 69.8936 53.0924C69.9812 53.1765 70.0819 53.2386 70.1957 53.2789C70.3114 53.3189 70.4386 53.3308 70.5773 53.3145C70.7561 53.2935 70.9032 53.2393 71.0187 53.1517C71.1342 53.0642 71.2313 52.9538 71.31 52.8206L71.6451 53.0282C71.5926 53.1324 71.5222 53.2341 71.434 53.3332C71.3458 53.4324 71.2328 53.5178 71.0951 53.5894C70.9592 53.6609 70.7937 53.7081 70.5984 53.731ZM74.8962 52.8045C75.0167 52.7903 75.1251 52.7526 75.2214 52.6914C75.3178 52.6301 75.3938 52.5528 75.4494 52.4593C75.5048 52.364 75.5305 52.2602 75.5266 52.1478L76.0083 52.0912C76.0197 52.2675 75.9796 52.4377 75.8879 52.602C75.7979 52.7643 75.6707 52.9022 75.5065 53.0158C75.3421 53.1276 75.1549 53.1958 74.9451 53.2205C74.7225 53.2466 74.5236 53.2302 74.3483 53.1713C74.1749 53.1121 74.0254 53.0205 73.8999 52.8965C73.7762 52.7723 73.6765 52.625 73.601 52.4544C73.5271 52.2818 73.4784 52.0961 73.4551 51.8972L73.4416 51.7823C73.4182 51.5834 73.4226 51.3924 73.4547 51.2092C73.4884 51.024 73.5511 50.8566 73.6427 50.7071C73.7361 50.5574 73.8602 50.4337 74.0152 50.336C74.172 50.238 74.3618 50.176 74.5843 50.1498C74.8161 50.1226 75.0242 50.1463 75.2086 50.2208C75.3929 50.2935 75.5438 50.4052 75.6614 50.556C75.7806 50.7048 75.8568 50.8808 75.8899 51.0841L75.4083 51.1407C75.3848 51.0195 75.3371 50.9132 75.2654 50.8217C75.1954 50.7301 75.1059 50.661 74.9969 50.6147C74.8894 50.5662 74.7682 50.55 74.6332 50.5658C74.4781 50.584 74.3513 50.6304 74.2528 50.7048C74.1559 50.7773 74.0825 50.8691 74.0327 50.9804C73.9845 51.0896 73.9541 51.2088 73.9415 51.3379C73.9305 51.465 73.9327 51.5933 73.9479 51.7228L73.9614 51.8378C73.9766 51.9673 74.0044 52.0935 74.0447 52.2164C74.0851 52.3393 74.1413 52.4483 74.2135 52.5434C74.2876 52.6383 74.3802 52.7106 74.4915 52.7605C74.6044 52.8082 74.7393 52.8229 74.8962 52.8045ZM76.3973 51.5267L76.3899 51.4637C76.3648 51.2503 76.3726 51.0487 76.4132 50.8589C76.4536 50.6674 76.5242 50.4972 76.6251 50.3485C76.7258 50.198 76.8548 50.0755 77.012 49.9812C77.169 49.8851 77.3506 49.8249 77.5568 49.8007C77.7648 49.7763 77.9563 49.7926 78.1314 49.8497C78.308 49.9048 78.4627 49.9939 78.5956 50.1171C78.7301 50.2382 78.8391 50.3872 78.9228 50.5642C79.0063 50.7393 79.0605 50.9337 79.0856 51.1471L79.093 51.2101C79.1181 51.4235 79.1103 51.6251 79.0697 51.8149C79.0291 52.0046 78.9576 52.1749 78.8551 52.3256C78.7542 52.4744 78.6252 52.5968 78.4682 52.6929C78.3128 52.787 78.131 52.8463 77.9231 52.8707C77.7151 52.8951 77.5236 52.8797 77.3488 52.8244C77.1738 52.7673 77.019 52.6782 76.8846 52.5571C76.7517 52.434 76.6436 52.2848 76.5601 52.1096C76.4766 51.9345 76.4224 51.7402 76.3973 51.5267ZM76.8962 51.4043L76.9036 51.4672C76.921 51.615 76.9547 51.7526 77.0048 51.8798C77.0547 52.0053 77.1202 52.1142 77.2013 52.2064C77.2842 52.2983 77.3821 52.3673 77.4947 52.4133C77.6072 52.4574 77.7337 52.4712 77.8742 52.4547C78.0128 52.4384 78.1308 52.3959 78.2282 52.3271C78.3272 52.2563 78.4054 52.1667 78.463 52.0582C78.5205 51.9497 78.559 51.8286 78.5784 51.695C78.5995 51.5594 78.6013 51.4177 78.584 51.2699L78.5766 51.2069C78.5594 51.061 78.525 50.9254 78.4733 50.8001C78.4232 50.6728 78.3567 50.5632 78.2737 50.4712C78.1924 50.3771 78.0954 50.3071 77.9827 50.2612C77.8718 50.215 77.7462 50.2002 77.6057 50.2167C77.467 50.233 77.3482 50.2765 77.2492 50.3473C77.1521 50.4179 77.074 50.5085 77.0148 50.619C76.9573 50.7275 76.9189 50.8495 76.8997 50.9849C76.8802 51.1185 76.8791 51.2583 76.8962 51.4043ZM80.1447 50.1932L80.4184 52.5221L79.9121 52.5816L79.5642 49.6204L80.0431 49.5642L80.1447 50.1932ZM80.1108 50.9435L79.8991 50.96C79.8771 50.7573 79.8853 50.5667 79.9235 50.3884C79.9615 50.2082 80.026 50.048 80.1168 49.9079C80.2076 49.7677 80.3219 49.6544 80.4597 49.568C80.5992 49.4794 80.7583 49.4247 80.9371 49.4037C81.083 49.3865 81.2168 49.3912 81.3382 49.4176C81.4595 49.4422 81.5662 49.4926 81.6584 49.5687C81.7524 49.6446 81.8293 49.7484 81.8892 49.8801C81.9489 50.0099 81.9902 50.1725 82.0131 50.3677L82.2411 52.3081L81.732 52.3679L81.5034 50.422C81.4852 50.2669 81.4478 50.1455 81.3913 50.0578C81.3345 49.9683 81.2599 49.9077 81.1674 49.8761C81.0746 49.8425 80.9644 49.8333 80.8367 49.8483C80.7108 49.8631 80.599 49.903 80.5012 49.9682C80.4052 50.0331 80.3253 50.1165 80.2615 50.2183C80.1994 50.3199 80.1545 50.4334 80.1267 50.5587C80.1004 50.682 80.0952 50.8103 80.1108 50.9435ZM83.8708 51.6533L84.3867 49.054L84.9039 48.9933L84.1872 52.0795L83.8479 52.1193L83.8708 51.6533ZM82.9006 49.2285L84.0312 51.6483L84.1407 52.0849L83.8014 52.1248L82.3806 49.2896L82.9006 49.2285ZM86.9499 51.8105C86.7438 51.8347 86.5527 51.822 86.3767 51.7724C86.2023 51.7207 86.0474 51.6381 85.912 51.5245C85.7784 51.4108 85.6693 51.27 85.5849 51.1024C85.5005 50.9347 85.446 50.7469 85.4216 50.5389L85.4081 50.424C85.3798 50.1831 85.3902 49.9646 85.4393 49.7683C85.4881 49.5702 85.566 49.3983 85.6728 49.2525C85.7796 49.1068 85.9066 48.9911 86.0537 48.9054C86.2009 48.8197 86.3575 48.767 86.5235 48.7475C86.7351 48.7227 86.9219 48.7377 87.0837 48.7927C87.2474 48.8475 87.3862 48.9348 87.5001 49.0546C87.6139 49.1725 87.7049 49.3172 87.7731 49.4886C87.8411 49.6582 87.8873 49.847 87.9118 50.055L87.9385 50.2821L85.7271 50.5419L85.6786 50.1286L87.3836 49.9284L87.3791 49.89C87.3564 49.7595 87.314 49.635 87.252 49.5165C87.1918 49.3978 87.1068 49.3042 86.997 49.2357C86.8873 49.1672 86.7457 49.1432 86.5724 49.1635C86.4574 49.177 86.3545 49.2141 86.2636 49.2747C86.1725 49.3335 86.0978 49.4144 86.0396 49.5174C85.9814 49.6205 85.9412 49.7426 85.919 49.884C85.8967 50.0253 85.8961 50.1854 85.9171 50.3642L85.9306 50.4791C85.9471 50.6196 85.9818 50.7496 86.0347 50.8692C86.0892 50.9867 86.1594 51.0876 86.2451 51.1719C86.3327 51.2559 86.4334 51.3181 86.5472 51.3584C86.6629 51.3984 86.7901 51.4103 86.9288 51.394C87.1076 51.373 87.2547 51.3187 87.3702 51.2312C87.4857 51.1436 87.5828 51.0333 87.6615 50.9001L87.9966 51.1077C87.9441 51.2119 87.8737 51.3136 87.7855 51.4127C87.6973 51.5118 87.5843 51.5973 87.4466 51.6689C87.3107 51.7404 87.1452 51.7876 86.9499 51.8105ZM88.9139 48.9939L89.2072 51.4899L88.7009 51.5493L88.353 48.5882L88.8456 48.5303L88.9139 48.9939ZM89.7824 48.4036L89.8349 48.8747C89.7919 48.8705 89.7511 48.8697 89.7126 48.8724C89.6757 48.873 89.6335 48.8761 89.586 48.8817C89.4693 48.8954 89.3683 48.9258 89.2832 48.9728C89.1981 49.0198 89.1284 49.0797 89.0741 49.1527C89.0198 49.2257 88.9797 49.3099 88.9539 49.4054C88.9298 49.4989 88.9185 49.6001 88.9202 49.709L88.7876 49.8079C88.7666 49.6291 88.7642 49.4592 88.7804 49.2982C88.7985 49.137 88.8378 48.9918 88.8985 48.8626C88.9589 48.7316 89.0427 48.6255 89.1497 48.5445C89.2583 48.4615 89.3929 48.4105 89.5534 48.3917C89.5899 48.3874 89.6324 48.387 89.6809 48.3906C89.7292 48.3923 89.763 48.3967 89.7824 48.4036ZM92.2461 50.3367C92.2375 50.2637 92.2132 50.1981 92.173 50.1399C92.1345 50.0797 92.063 50.0298 91.9585 49.9903C91.8555 49.9488 91.7042 49.9203 91.5045 49.9049C91.3362 49.8895 91.1827 49.866 91.0439 49.8342C90.907 49.8022 90.788 49.7579 90.6871 49.7013C90.5879 49.6445 90.5083 49.5734 90.4483 49.4879C90.3884 49.4025 90.3512 49.2987 90.3368 49.1764C90.3231 49.0596 90.3357 48.9463 90.3746 48.8363C90.4152 48.7261 90.4783 48.6252 90.5638 48.5338C90.651 48.4422 90.7595 48.3656 90.8891 48.3042C91.0188 48.2427 91.1666 48.2022 91.3327 48.1827C91.5699 48.1548 91.7773 48.173 91.955 48.2372C92.1327 48.3014 92.2746 48.3985 92.3805 48.5285C92.4862 48.6567 92.549 48.8056 92.5689 48.9753L92.0626 49.0348C92.053 48.9527 92.019 48.8762 91.9607 48.8053C91.9041 48.7325 91.8262 48.6759 91.7272 48.6358C91.6299 48.5954 91.5147 48.583 91.3815 48.5987C91.2411 48.6152 91.1296 48.6505 91.0472 48.7046C90.9663 48.7566 90.9097 48.8178 90.8773 48.8882C90.8467 48.9584 90.8357 49.03 90.8443 49.1029C90.8507 49.1577 90.8656 49.2059 90.889 49.2475C90.914 49.2871 90.9533 49.3223 91.0068 49.353C91.0602 49.3819 91.1333 49.4066 91.2264 49.4271C91.3194 49.4476 91.4371 49.4652 91.5794 49.4799C91.8285 49.5062 92.036 49.5484 92.2019 49.6066C92.3678 49.6648 92.4956 49.745 92.5854 49.8473C92.6751 49.9496 92.7292 50.0802 92.7479 50.2389C92.7631 50.3684 92.7497 50.4902 92.7076 50.6043C92.6673 50.7182 92.6007 50.8203 92.5078 50.9108C92.4164 50.9992 92.3031 51.0735 92.1677 51.1338C92.034 51.1921 91.8805 51.2314 91.7071 51.2517C91.4462 51.2824 91.22 51.2618 91.0284 51.19C90.8369 51.1181 90.6859 51.0138 90.5755 50.8769C90.4651 50.7401 90.4002 50.5895 90.3809 50.4253L90.8899 50.3655C90.9135 50.5033 90.9666 50.609 91.0493 50.6825C91.1317 50.7543 91.2278 50.8012 91.3377 50.8235C91.4474 50.8439 91.5543 50.848 91.6582 50.8358C91.7969 50.8195 91.9106 50.7876 91.9994 50.7402C92.09 50.6926 92.1562 50.6339 92.1979 50.5643C92.2397 50.4946 92.2557 50.4188 92.2461 50.3367ZM93.7259 47.9571L94.0738 50.9183L93.5648 50.9781L93.2169 48.0169L93.7259 47.9571ZM93.0863 47.2359C93.0766 47.1538 93.0931 47.0816 93.1357 47.0193C93.1802 46.9567 93.2517 46.9196 93.3502 46.9081C93.4469 46.8967 93.5241 46.9163 93.5818 46.9669C93.6414 47.0172 93.676 47.0834 93.6856 47.1655C93.6948 47.244 93.6763 47.3146 93.6301 47.3774C93.5854 47.4381 93.5147 47.4742 93.418 47.4855C93.3195 47.4971 93.2415 47.4785 93.184 47.4298C93.1281 47.379 93.0955 47.3144 93.0863 47.2359ZM94.5964 49.3892L94.5891 49.3262C94.564 49.1128 94.5717 48.9112 94.6123 48.7214C94.6527 48.5299 94.7234 48.3597 94.8243 48.211C94.925 48.0604 95.0539 47.938 95.2112 47.8437C95.3682 47.7476 95.5498 47.6874 95.756 47.6632C95.964 47.6387 96.1555 47.6551 96.3305 47.7122C96.5072 47.7673 96.6619 47.8564 96.7947 47.9795C96.9292 48.1006 97.0383 48.2497 97.122 48.4267C97.2054 48.6018 97.2597 48.7961 97.2848 49.0096L97.2922 49.0726C97.3173 49.286 97.3095 49.4876 97.2689 49.6774C97.2283 49.8671 97.1567 50.0374 97.0542 50.1881C96.9533 50.3368 96.8244 50.4593 96.6673 50.5554C96.5119 50.6495 96.3302 50.7088 96.1222 50.7332C95.9142 50.7576 95.7228 50.7422 95.548 50.6869C95.3729 50.6297 95.2182 50.5406 95.0837 50.4196C94.9509 50.2964 94.8427 50.1473 94.7593 49.9721C94.6758 49.797 94.6215 49.6026 94.5964 49.3892ZM95.0954 49.2668L95.1028 49.3297C95.1201 49.4775 95.1538 49.615 95.2039 49.7423C95.2538 49.8678 95.3193 49.9766 95.4005 50.0688C95.4834 50.1608 95.5812 50.2298 95.6939 50.2758C95.8064 50.3199 95.9328 50.3337 96.0733 50.3172C96.212 50.3009 96.33 50.2584 96.4274 50.1896C96.5263 50.1188 96.6046 50.0291 96.6621 49.9207C96.7197 49.8122 96.7582 49.6911 96.7776 49.5575C96.7987 49.4218 96.8005 49.2801 96.7831 49.1323L96.7757 49.0694C96.7586 48.9234 96.7242 48.7878 96.6725 48.6626C96.6224 48.5353 96.5558 48.4256 96.4729 48.3336C96.3916 48.2396 96.2945 48.1696 96.1819 48.1237C96.071 48.0775 95.9453 48.0627 95.8048 48.0792C95.6662 48.0955 95.5474 48.139 95.4484 48.2098C95.3513 48.2804 95.2731 48.371 95.214 48.4815C95.1564 48.59 95.118 48.712 95.0988 48.8474C95.0794 48.981 95.0782 49.1208 95.0954 49.2668ZM98.3439 48.0556L98.6175 50.3846L98.1112 50.4441L97.7633 47.4829L98.2423 47.4266L98.3439 48.0556ZM98.31 48.806L98.0983 48.8225C98.0763 48.6198 98.0844 48.4292 98.1227 48.2509C98.1607 48.0707 98.2251 47.9105 98.3159 47.7704C98.4067 47.6302 98.5211 47.5169 98.6589 47.4304C98.7983 47.3419 98.9574 47.2872 99.1362 47.2662C99.2822 47.249 99.4159 47.2537 99.5374 47.2801C99.6587 47.3047 99.7654 47.355 99.8576 47.4311C99.9516 47.507 100.029 47.6108 100.088 47.7425C100.148 47.8724 100.189 48.0349 100.212 48.2302L100.44 50.1705L99.9312 50.2303L99.7026 48.2845C99.6843 48.1294 99.647 48.008 99.5904 47.9203C99.5337 47.8308 99.459 47.7702 99.3665 47.7385C99.2738 47.705 99.1636 47.6958 99.0359 47.7108C98.91 47.7256 98.7981 47.7655 98.7003 47.8306C98.6044 47.8956 98.5245 47.9789 98.4606 48.0808C98.3986 48.1824 98.3536 48.2959 98.3258 48.4212C98.2996 48.5445 98.2943 48.6728 98.31 48.806ZM102.841 47.3582L103.134 49.8542L102.628 49.9136L102.28 46.9524L102.772 46.8946L102.841 47.3582ZM103.709 46.7679L103.762 47.239C103.719 47.2348 103.678 47.234 103.639 47.2367C103.602 47.2373 103.56 47.2404 103.513 47.246C103.396 47.2597 103.295 47.2901 103.21 47.3371C103.125 47.384 103.055 47.444 103.001 47.517C102.946 47.59 102.906 47.6742 102.881 47.7697C102.856 47.8632 102.845 47.9644 102.847 48.0733L102.714 48.1721C102.693 47.9933 102.691 47.8234 102.707 47.6625C102.725 47.5013 102.765 47.3561 102.825 47.2269C102.886 47.0958 102.969 46.9898 103.076 46.9088C103.185 46.8258 103.32 46.7748 103.48 46.756C103.517 46.7517 103.559 46.7513 103.608 46.7549C103.656 46.7566 103.69 46.7609 103.709 46.7679ZM106.118 48.9904L105.939 47.466C105.925 47.3492 105.89 47.2508 105.832 47.1706C105.776 47.0884 105.699 47.029 105.6 46.9925C105.502 46.956 105.384 46.9458 105.247 46.9618C105.119 46.9768 105.01 47.0119 104.918 47.0671C104.828 47.122 104.76 47.1882 104.714 47.2658C104.669 47.3432 104.652 47.4229 104.662 47.505L104.155 47.5645C104.143 47.4587 104.158 47.3506 104.2 47.2401C104.243 47.1297 104.31 47.0265 104.403 46.9306C104.497 46.8326 104.613 46.7506 104.751 46.6844C104.891 46.6161 105.05 46.5715 105.229 46.5505C105.445 46.5252 105.639 46.5394 105.811 46.5931C105.986 46.6466 106.129 46.7418 106.239 46.8786C106.351 47.0135 106.42 47.1912 106.446 47.412L106.608 48.7913C106.619 48.8899 106.64 48.9938 106.67 49.1032C106.701 49.2123 106.739 49.305 106.783 49.3812L106.788 49.425L106.26 49.487C106.227 49.4317 106.198 49.3565 106.172 49.2615C106.146 49.1647 106.128 49.0743 106.118 48.9904ZM106.054 47.6911L106.101 48.0462L105.59 48.1063C105.446 48.1233 105.318 48.1502 105.208 48.1872C105.097 48.2224 105.006 48.2673 104.935 48.3219C104.864 48.3765 104.812 48.4409 104.78 48.5149C104.748 48.5871 104.737 48.6689 104.748 48.7601C104.759 48.8531 104.79 48.9355 104.841 49.0072C104.892 49.0789 104.962 49.1326 105.051 49.1684C105.142 49.2021 105.25 49.2117 105.374 49.1971C105.529 49.1789 105.662 49.13 105.773 49.0504C105.884 48.9708 105.968 48.8794 106.026 48.7764C106.086 48.6732 106.114 48.5765 106.109 48.4865L106.354 48.7047C106.35 48.7828 106.325 48.8717 106.279 48.9714C106.234 49.0711 106.169 49.1694 106.084 49.2663C106.001 49.3612 105.898 49.4445 105.775 49.5162C105.653 49.586 105.513 49.6303 105.352 49.6491C105.151 49.6727 104.971 49.6542 104.81 49.5935C104.651 49.5326 104.522 49.4414 104.423 49.3199C104.325 49.1964 104.266 49.0525 104.247 48.8883C104.228 48.7296 104.243 48.5863 104.291 48.4586C104.339 48.3291 104.416 48.2173 104.523 48.1233C104.631 48.0275 104.764 47.949 104.923 47.8877C105.082 47.8265 105.263 47.784 105.466 47.7602L106.054 47.6911ZM108.386 46.2352L108.432 46.6239L106.831 46.8119L106.785 46.4233L108.386 46.2352ZM107.242 45.6399L107.749 45.5804L108.095 48.5279C108.107 48.6282 108.131 48.7021 108.168 48.7496C108.205 48.797 108.249 48.8261 108.301 48.8367C108.352 48.8473 108.406 48.8493 108.462 48.8427C108.504 48.8378 108.547 48.829 108.592 48.8163C108.639 48.8016 108.673 48.7901 108.696 48.7819L108.748 49.1948C108.709 49.2123 108.658 49.2304 108.593 49.249C108.531 49.2693 108.454 49.2848 108.363 49.2955C108.239 49.3101 108.122 49.2989 108.012 49.2618C107.902 49.2248 107.81 49.1524 107.734 49.0447C107.66 48.935 107.612 48.7817 107.588 48.5846L107.242 45.6399ZM110.577 49.0354C110.371 49.0596 110.18 49.0469 110.004 48.9973C109.829 48.9457 109.675 48.8631 109.539 48.7495C109.406 48.6357 109.297 48.495 109.212 48.3273C109.128 48.1597 109.073 47.9719 109.049 47.7639L109.035 47.6489C109.007 47.4081 109.017 47.1895 109.066 46.9932C109.115 46.7951 109.193 46.6232 109.3 46.4775C109.407 46.3318 109.534 46.216 109.681 46.1303C109.828 46.0446 109.985 45.992 110.151 45.9725C110.362 45.9476 110.549 45.9627 110.711 46.0177C110.875 46.0724 111.013 46.1597 111.127 46.2795C111.241 46.3975 111.332 46.5422 111.4 46.7136C111.468 46.8832 111.515 47.0719 111.539 47.2799L111.566 47.5071L109.354 47.7668L109.306 47.3536L111.011 47.1533L111.006 47.115C110.984 46.9845 110.941 46.86 110.879 46.7415C110.819 46.6228 110.734 46.5292 110.624 46.4607C110.514 46.3922 110.373 46.3681 110.2 46.3885C110.085 46.402 109.982 46.439 109.891 46.4997C109.8 46.5585 109.725 46.6394 109.667 46.7424C109.609 46.8454 109.568 46.9676 109.546 47.1089C109.524 47.2503 109.523 47.4103 109.544 47.5891L109.558 47.7041C109.574 47.8446 109.609 47.9746 109.662 48.0942C109.716 48.2117 109.787 48.3126 109.872 48.3968C109.96 48.4809 110.061 48.543 110.174 48.5833C110.29 48.6234 110.417 48.6353 110.556 48.619C110.735 48.598 110.882 48.5437 110.997 48.4561C111.113 48.3686 111.21 48.2582 111.289 48.1251L111.624 48.3326C111.571 48.4368 111.501 48.5385 111.413 48.6376C111.324 48.7368 111.211 48.8222 111.074 48.8939C110.938 48.9653 110.772 49.0125 110.577 49.0354ZM112.275 48.5087C112.265 48.4229 112.283 48.3477 112.329 48.2831C112.376 48.2165 112.451 48.1772 112.553 48.1652C112.656 48.1532 112.737 48.1742 112.797 48.2282C112.858 48.2801 112.894 48.349 112.904 48.4347C112.914 48.5187 112.895 48.593 112.847 48.6578C112.801 48.7224 112.727 48.7607 112.625 48.7727C112.523 48.7847 112.441 48.7648 112.379 48.7128C112.319 48.6606 112.284 48.5926 112.275 48.5087ZM111.993 46.0918C111.983 46.006 112.001 45.9308 112.047 45.8662C112.095 45.7996 112.17 45.7603 112.272 45.7483C112.374 45.7363 112.455 45.7573 112.515 45.8113C112.577 45.8632 112.613 45.9321 112.623 46.0178C112.633 46.1018 112.614 46.1761 112.566 46.241C112.52 46.3056 112.446 46.3439 112.344 46.3559C112.241 46.3679 112.159 46.3479 112.098 46.2959C112.038 46.2438 112.003 46.1757 111.993 46.0918Z" fill="#919191"/>
<path d="M49.7503 71.5173L49.8738 72.5682L44.5316 73.1957L44.4255 72.2926L46.6875 69.158C46.9344 68.8035 47.1262 68.4998 47.263 68.247C47.3998 67.9941 47.49 67.7708 47.5339 67.577C47.5809 67.3791 47.5939 67.1908 47.5729 67.012C47.5433 66.7602 47.47 66.545 47.3528 66.3664C47.2388 66.1837 47.086 66.0481 46.8944 65.9596C46.7023 65.8675 46.4785 65.8365 46.2231 65.8665C45.9275 65.9012 45.6869 65.9942 45.5012 66.1455C45.3155 66.2968 45.1848 66.4915 45.1093 66.7298C45.0332 66.9644 45.0122 67.2258 45.046 67.5141L43.7269 67.669C43.6725 67.2056 43.7285 66.7699 43.8952 66.3619C44.0614 65.9502 44.3319 65.6077 44.7067 65.3343C45.0811 65.0573 45.5511 64.8855 46.1167 64.8191C46.6494 64.7565 47.1124 64.7928 47.5056 64.9279C47.8988 65.063 48.2114 65.2833 48.4434 65.589C48.6791 65.8943 48.8232 66.2714 48.876 66.7202C48.9051 66.9683 48.8939 67.2193 48.8424 67.4733C48.7908 67.7272 48.7046 67.9852 48.5837 68.2472C48.466 68.5052 48.3212 68.7682 48.1492 69.0363C47.9768 69.3007 47.7848 69.5711 47.5731 69.8475L46.0721 71.9493L49.7503 71.5173ZM51.1812 71.7488C51.1572 71.5445 51.2064 71.3648 51.3288 71.2099C51.4507 71.0513 51.6303 70.958 51.8675 70.9302C52.1083 70.9019 52.3046 70.951 52.4563 71.0774C52.6113 71.1998 52.7007 71.3632 52.7248 71.5675C52.7488 71.7719 52.6996 71.9515 52.5772 72.1064C52.4585 72.261 52.2787 72.3524 52.0379 72.3807C51.8007 72.4085 51.6046 72.3613 51.4497 72.2389C51.2947 72.1165 51.2052 71.9531 51.1812 71.7488ZM57.1332 63.6084L58.0727 71.6053L56.7536 71.7602L55.998 65.3288L54.1218 66.2206L53.9938 65.1314L56.9745 63.6271L57.1332 63.6084ZM60.3051 65.2446L60.2556 64.8232C60.22 64.5203 60.2533 64.2371 60.3555 63.9735C60.4577 63.71 60.6259 63.4886 60.8601 63.3094C61.0944 63.1302 61.3884 63.0199 61.7424 62.9783C62.1073 62.9354 62.4226 62.9742 62.6883 63.0947C62.9577 63.2147 63.1726 63.3911 63.3331 63.6238C63.4937 63.8565 63.5917 64.1243 63.6273 64.4272L63.6768 64.8486C63.7115 65.1442 63.6778 65.4238 63.5756 65.6873C63.477 65.9505 63.3106 66.1716 63.0764 66.3508C62.8459 66.5296 62.55 66.6402 62.1887 66.6826C61.8311 66.7246 61.5158 66.6858 61.2428 66.5662C60.9734 66.4461 60.7585 66.2698 60.598 66.0371C60.4374 65.8044 60.3398 65.5402 60.3051 65.2446ZM61.1697 64.7158L61.2192 65.1373C61.2363 65.2832 61.28 65.4187 61.3502 65.5436C61.424 65.6681 61.524 65.7637 61.6502 65.8302C61.7764 65.8968 61.9252 65.92 62.0967 65.8999C62.2719 65.8793 62.4095 65.8224 62.5095 65.7293C62.6132 65.6357 62.6847 65.5201 62.724 65.3823C62.7633 65.2445 62.7744 65.1026 62.7572 64.9566L62.7077 64.5352C62.6902 64.3856 62.6445 64.2485 62.5706 64.124C62.5 63.9954 62.4035 63.8976 62.2809 63.8306C62.1584 63.7636 62.0095 63.7404 61.8344 63.761C61.6665 63.7807 61.5289 63.8376 61.4216 63.9316C61.3179 64.0251 61.2448 64.1428 61.2022 64.2847C61.1629 64.4225 61.1521 64.5662 61.1697 64.7158ZM64.6749 69.2816L64.6247 68.8547C64.5895 68.5555 64.6231 68.2741 64.7253 68.0105C64.8311 67.7465 65.0012 67.525 65.2354 67.3458C65.4696 67.1666 65.7637 67.0562 66.1176 67.0146C66.4825 66.9718 66.7978 67.0106 67.0636 67.131C67.3329 67.2511 67.546 67.4277 67.7029 67.6608C67.8634 67.8935 67.9613 68.1595 67.9964 68.4587L68.0466 68.8856C68.0817 69.1848 68.0482 69.4662 67.946 69.7298C67.8474 69.9929 67.6829 70.2139 67.4523 70.3926C67.2217 70.5714 66.9277 70.6818 66.57 70.7238C66.2088 70.7662 65.8917 70.7276 65.6187 70.608C65.3493 70.488 65.1325 70.3118 64.9684 70.0795C64.8078 69.8468 64.71 69.5809 64.6749 69.2816ZM65.5442 68.7467L65.5944 69.1736C65.6116 69.3196 65.657 69.4548 65.7309 69.5793C65.8083 69.7034 65.9104 69.8006 66.037 69.8708C66.1632 69.9373 66.3084 69.961 66.4726 69.9417C66.6587 69.9198 66.8036 69.8621 66.9073 69.7686C67.0106 69.6713 67.0784 69.5561 67.1108 69.4228C67.1465 69.2854 67.1555 69.142 67.138 68.9923L67.0878 68.5654C67.0702 68.4158 67.0245 68.2787 66.9507 68.1542C66.8805 68.0293 66.7823 67.9335 66.6561 67.867C66.5336 67.8 66.3847 67.7768 66.2096 67.7974C66.0381 67.8175 65.9005 67.8744 65.7968 67.9679C65.6931 68.0615 65.6198 68.1774 65.5768 68.3156C65.5375 68.4534 65.5267 68.5971 65.5442 68.7467ZM66.066 63.7412L62.9061 70.4272L62.1872 70.1176L65.3471 63.4317L66.066 63.7412Z" fill="#001E41"/>
<path d="M44.2528 114.384L38.5326 107.932L40.0231 120.619L191.76 102.797L190.866 95.1849L184.916 86.7814L181.306 98.2865L175.356 89.883L171.057 95.5327L164.879 85.1773L161.727 100.586L156.006 94.1344L151.708 99.7841L145.529 89.4287L141.689 98.982L136.198 94.4822L132.358 104.035L126.179 93.6801L122.339 103.233L114.555 79.2152L112.321 102.431L105.454 86.2205L102.99 107.485L97.2695 101.033L90.4485 85.2127L87.48 102.183L81.3469 92.2179L77.0025 97.4772L73.392 108.982L67.901 104.483L63.8318 112.084L57.1943 97.825L53.5837 109.33L47.6341 100.927L44.2528 114.384Z" fill="url(#paint0_linear_1_232)"/>
<path d="M38.5624 108.193L44.2853 114.65L47.6675 101.183L53.6199 109.593L57.2315 98.0797L63.8724 112.349L67.943 104.742L73.4364 109.246L77.0481 97.7324L81.3942 92.4695L87.5301 102.442L90.4993 85.4596L97.3237 101.292L103.047 107.748L105.511 86.4687L112.381 102.691L114.616 79.4587L122.404 103.494L126.245 93.9342L132.427 104.297L136.268 94.7372L141.762 99.2404L145.603 89.6805L151.785 100.043L156.085 94.3899L161.808 100.846L164.961 85.4267L171.143 95.7896L175.443 90.1361L181.395 98.5458L185.007 87.0326L190.959 95.4423" stroke="#98CB56" stroke-width="0.940576" stroke-linecap="round"/>
</g>
</g>
</g>
</g>
<defs>
<filter id="filter0_d_1_232" x="-0.596205" y="-0.676964" width="223.485" height="157.601" filterUnits="userSpaceOnUse" color-interpolation-filters="sRGB">
<feFlood flood-opacity="0" result="BackgroundImageFix"/>
<feColorMatrix in="SourceAlpha" type="matrix" values="0 0 0 0 0 0 0 0 0 0 0 0 0 0 0 0 0 0 127 0" result="hardAlpha"/>
<feOffset dy="4.91924"/>
<feGaussianBlur stdDeviation="12.2981"/>
<feComposite in2="hardAlpha" operator="out"/>
<feColorMatrix type="matrix" values="0 0 0 0 0 0 0 0 0 0 0 0 0 0 0 0 0 0 0.12 0"/>
<feBlend mode="normal" in2="BackgroundImageFix" result="effect1_dropShadow_1_232"/>
<feBlend mode="normal" in="SourceGraphic" in2="effect1_dropShadow_1_232" result="shape"/>
</filter>
<filter id="filter1_d_1_232" x="18.5282" y="16.0225" width="185.703" height="119.563" filterUnits="userSpaceOnUse" color-interpolation-filters="sRGB">
<feFlood flood-opacity="0" result="BackgroundImageFix"/>
<feColorMatrix in="SourceAlpha" type="matrix" values="0 0 0 0 0 0 0 0 0 0 0 0 0 0 0 0 0 0 127 0" result="hardAlpha"/>
<feOffset dy="2.49437"/>
<feGaussianBlur stdDeviation="6.23592"/>
<feComposite in2="hardAlpha" operator="out"/>
<feColorMatrix type="matrix" values="0 0 0 0 0 0 0 0 0 0 0 0 0 0 0 0 0 0 0.08 0"/>
<feBlend mode="normal" in2="BackgroundImageFix" result="effect1_dropShadow_1_232"/>
<feBlend mode="normal" in="SourceGraphic" in2="effect1_dropShadow_1_232" result="shape"/>
</filter>
<linearGradient id="paint0_linear_1_232" x1="111.527" y1="76.3964" x2="115.651" y2="111.508" gradientUnits="userSpaceOnUse">
<stop stop-color="#98CB56"/>
<stop offset="0.0001" stop-color="#98CB56" stop-opacity="0.46"/>
<stop offset="1" stop-color="#98CB56" stop-opacity="0.1"/>
</linearGradient>
<clipPath id="clip0_1_232">
<rect width="164.942" height="89.7815" rx="6.23592" transform="matrix(0.993173 -0.11665 0.116685 0.993169 24 38.2405)" fill="white"/>
</clipPath>
<clipPath id="clip1_1_232">
<rect width="152.78" height="77.3254" rx="3.74155" transform="matrix(0.993173 -0.11665 0.116685 0.993169 31 43.8218)" fill="white"/>
</clipPath>
</defs>
</svg>
